# GENERATED BY maliput::utility::GenerateObjFile()
#
# DON'T BE A HERO.  Do not edit by hand.

mtllib ChangeOrigin.mtl
# Vertices
v 0.000 -1.000 0.000
v 1.000 -1.000 0.000
v 1.000 1.000 0.000
v 0.000 1.000 0.000
# Normals
vn 0.000 0.000 1.000

# Faces
usemtl bland_asphalt
f 1//1 2//1 3//1 4//1
# Vertices
v 0.000 -0.500 0.020
v 1.000 -0.500 0.020
v 1.000 0.500 0.020
v 0.000 0.500 0.020
# Normals
vn 0.000 0.000 1.000

# Faces
usemtl lane_haze
f 5//2 6//2 7//2 8//2
# Vertices
v 0.000 0.375 0.050
v 1.000 0.375 0.050
v 1.000 0.625 0.050
v 0.000 0.625 0.050
v 0.000 -0.625 0.050
v 1.000 -0.625 0.050
v 1.000 -0.375 0.050
v 0.000 -0.375 0.050
v 0.010 0.000 0.050
v 0.160 0.000 0.050
v 0.160 0.200 0.050
v 0.010 0.200 0.050
v 0.010 0.400 0.050
v 0.010 -0.200 0.050
v 0.160 -0.200 0.050
v 0.010 -0.400 0.050
v 0.310 0.000 0.050
v 0.690 0.000 0.050
v 0.840 0.000 0.050
v 0.840 0.200 0.050
v 0.690 0.200 0.050
v 0.690 0.400 0.050
v 0.690 -0.200 0.050
v 0.840 -0.200 0.050
v 0.690 -0.400 0.050
v 0.990 0.000 0.050
# Normals
vn 0.000 0.000 1.000

# Faces
usemtl marker_paint
f 9//3 10//3 11//3 12//3
f 13//3 14//3 15//3 16//3
f 17//3 18//3 19//3 20//3
f 20//3 19//3 21//3
f 17//3 22//3 23//3 18//3
f 22//3 24//3 23//3
f 18//3 25//3 19//3
f 18//3 23//3 25//3
f 26//3 27//3 28//3 29//3
f 29//3 28//3 30//3
f 26//3 31//3 32//3 27//3
f 31//3 33//3 32//3
f 27//3 34//3 28//3
f 27//3 32//3 34//3
# Vertices
v 0.000 0.000 0.250
v 0.000 -0.050 0.500
v 0.000 0.000 0.750
v 0.000 0.050 0.500
v 0.400 -0.005 0.500
v 0.400 0.005 0.500
v 0.400 0.000 0.525
v 0.400 0.000 0.475
v 1.000 0.000 0.250
v 1.000 0.050 0.500
v 1.000 0.000 0.750
v 1.000 -0.050 0.500
v 0.600 0.005 0.500
v 0.600 -0.005 0.500
v 0.600 0.000 0.525
v 0.600 0.000 0.475
# Normals
vn 1.000 0.000 0.000
vn 0.000 0.000 1.000
vn 0.000 1.000 0.000
vn -1.000 0.000 0.000
vn 0.000 -1.000 0.000

# Faces
usemtl branch_point_glow
f 35//4 36//4 37//4 38//4
f 38//5 36//5 39//5 40//5
f 35//6 37//6 41//6 42//6
f 43//7 44//7 45//7 46//7
f 46//5 44//5 47//5 48//5
f 43//8 45//8 49//8 50//8
# Vertices
v 0.000 -1.000 5.000
v 1.000 -1.000 5.000
v 1.000 1.000 5.000
v 0.000 1.000 5.000
v 0.000 -1.000 0.000
v 1.000 -1.000 0.000
v 1.000 1.000 0.000
v 0.000 1.000 0.000
# Normals
vn 0.000 0.000 1.000

# Faces
usemtl h_bounds_haze
f 51//9 52//9 53//9 54//9
f 55//9 56//9 57//9 58//9
