# GENERATED BY maliput::utility::GenerateObjFile()
#
# DON'T BE A HERO.  Do not edit by hand.

mtllib HighlightedSegments.mtl
# Vertices
v 2.000 -1.000 0.000
v 4.000 -1.000 0.000
v 4.000 1.000 0.000
v 2.000 1.000 0.000
# Normals
vn 0.000 0.000 1.000

# Faces
usemtl bland_asphalt
f 1//1 2//1 3//1 4//1
# Vertices
v 2.000 -0.500 0.020
v 4.000 -0.500 0.020
v 4.000 0.500 0.020
v 2.000 0.500 0.020
# Normals
vn 0.000 0.000 1.000

# Faces
usemtl lane_haze
f 5//2 6//2 7//2 8//2
# Vertices
v 2.000 0.375 0.050
v 4.000 0.375 0.050
v 4.000 0.625 0.050
v 2.000 0.625 0.050
v 2.000 -0.625 0.050
v 4.000 -0.625 0.050
v 4.000 -0.375 0.050
v 2.000 -0.375 0.050
v 2.010 0.000 0.050
v 2.210 0.000 0.050
v 2.210 0.133 0.050
v 2.010 0.133 0.050
v 2.210 0.267 0.050
v 2.010 0.267 0.050
v 2.010 0.400 0.050
v 2.010 -0.133 0.050
v 2.210 -0.133 0.050
v 2.010 -0.267 0.050
v 2.210 -0.267 0.050
v 2.010 -0.400 0.050
v 2.410 0.000 0.050
v 2.410 0.133 0.050
v 2.410 -0.133 0.050
v 2.610 0.000 0.050
v 3.390 0.000 0.050
v 3.590 0.000 0.050
v 3.590 0.133 0.050
v 3.390 0.133 0.050
v 3.590 0.267 0.050
v 3.390 0.267 0.050
v 3.390 0.400 0.050
v 3.390 -0.133 0.050
v 3.590 -0.133 0.050
v 3.390 -0.267 0.050
v 3.590 -0.267 0.050
v 3.390 -0.400 0.050
v 3.790 0.000 0.050
v 3.790 0.133 0.050
v 3.790 -0.133 0.050
v 3.990 0.000 0.050
# Normals
vn 0.000 0.000 1.000

# Faces
usemtl marker_paint
f 9//3 10//3 11//3 12//3
f 13//3 14//3 15//3 16//3
f 17//3 18//3 19//3 20//3
f 20//3 19//3 21//3 22//3
f 22//3 21//3 23//3
f 17//3 24//3 25//3 18//3
f 24//3 26//3 27//3 25//3
f 26//3 28//3 27//3
f 18//3 29//3 30//3 19//3
f 19//3 30//3 21//3
f 18//3 25//3 31//3 29//3
f 25//3 27//3 31//3
f 29//3 32//3 30//3
f 29//3 31//3 32//3
f 33//3 34//3 35//3 36//3
f 36//3 35//3 37//3 38//3
f 38//3 37//3 39//3
f 33//3 40//3 41//3 34//3
f 40//3 42//3 43//3 41//3
f 42//3 44//3 43//3
f 34//3 45//3 46//3 35//3
f 35//3 46//3 37//3
f 34//3 41//3 47//3 45//3
f 41//3 43//3 47//3
f 45//3 48//3 46//3
f 45//3 47//3 48//3
# Vertices
v 0.000 0.000 0.250
v 0.000 -0.050 0.500
v 0.000 0.000 0.750
v 0.000 0.050 0.500
v 0.800 -0.005 0.500
v 0.800 0.005 0.500
v 0.800 0.000 0.525
v 0.800 0.000 0.475
v 2.000 0.000 0.250
v 2.000 0.050 0.500
v 2.000 0.000 0.750
v 2.000 -0.050 0.500
v 1.200 0.005 0.500
v 1.200 -0.005 0.500
v 1.200 0.000 0.525
v 1.200 0.000 0.475
v 2.800 -0.005 0.500
v 2.800 0.005 0.500
v 2.800 0.000 0.525
v 2.800 0.000 0.475
v 4.000 0.000 0.250
v 4.000 0.050 0.500
v 4.000 0.000 0.750
v 4.000 -0.050 0.500
v 3.200 0.005 0.500
v 3.200 -0.005 0.500
v 3.200 0.000 0.525
v 3.200 0.000 0.475
# Normals
vn 1.000 0.000 0.000
vn 0.000 0.000 1.000
vn 0.000 1.000 0.000
vn -1.000 0.000 0.000
vn 0.000 -1.000 0.000

# Faces
usemtl branch_point_glow
f 49//4 50//4 51//4 52//4
f 52//5 50//5 53//5 54//5
f 49//6 51//6 55//6 56//6
f 57//7 58//7 59//7 60//7
f 60//5 58//5 61//5 62//5
f 57//8 59//8 63//8 64//8
f 58//5 60//5 65//5 66//5
f 57//6 59//6 67//6 68//6
f 69//7 70//7 71//7 72//7
f 72//5 70//5 73//5 74//5
f 69//8 71//8 75//8 76//8
# Vertices
v 0.000 -1.000 0.000
v 2.000 -1.000 0.000
v 2.000 1.000 0.000
v 0.000 1.000 0.000
# Normals
vn 0.000 0.000 1.000

# Faces
usemtl grayed_bland_asphalt
f 77//9 78//9 79//9 80//9
# Vertices
v 0.000 -0.500 0.020
v 2.000 -0.500 0.020
v 2.000 0.500 0.020
v 0.000 0.500 0.020
# Normals
vn 0.000 0.000 1.000

# Faces
usemtl grayed_lane_haze
f 81//10 82//10 83//10 84//10
# Vertices
v 0.000 0.375 0.050
v 2.000 0.375 0.050
v 2.000 0.625 0.050
v 0.000 0.625 0.050
v 0.000 -0.625 0.050
v 2.000 -0.625 0.050
v 2.000 -0.375 0.050
v 0.000 -0.375 0.050
v 0.010 0.000 0.050
v 0.210 0.000 0.050
v 0.210 0.133 0.050
v 0.010 0.133 0.050
v 0.210 0.267 0.050
v 0.010 0.267 0.050
v 0.010 0.400 0.050
v 0.010 -0.133 0.050
v 0.210 -0.133 0.050
v 0.010 -0.267 0.050
v 0.210 -0.267 0.050
v 0.010 -0.400 0.050
v 0.410 0.000 0.050
v 0.410 0.133 0.050
v 0.410 -0.133 0.050
v 0.610 0.000 0.050
v 1.390 0.000 0.050
v 1.590 0.000 0.050
v 1.590 0.133 0.050
v 1.390 0.133 0.050
v 1.590 0.267 0.050
v 1.390 0.267 0.050
v 1.390 0.400 0.050
v 1.390 -0.133 0.050
v 1.590 -0.133 0.050
v 1.390 -0.267 0.050
v 1.590 -0.267 0.050
v 1.390 -0.400 0.050
v 1.790 0.000 0.050
v 1.790 0.133 0.050
v 1.790 -0.133 0.050
v 1.990 0.000 0.050
# Normals
vn 0.000 0.000 1.000

# Faces
usemtl grayed_marker_paint
f 85//11 86//11 87//11 88//11
f 89//11 90//11 91//11 92//11
f 93//11 94//11 95//11 96//11
f 96//11 95//11 97//11 98//11
f 98//11 97//11 99//11
f 93//11 100//11 101//11 94//11
f 100//11 102//11 103//11 101//11
f 102//11 104//11 103//11
f 94//11 105//11 106//11 95//11
f 95//11 106//11 97//11
f 94//11 101//11 107//11 105//11
f 101//11 103//11 107//11
f 105//11 108//11 106//11
f 105//11 107//11 108//11
f 109//11 110//11 111//11 112//11
f 112//11 111//11 113//11 114//11
f 114//11 113//11 115//11
f 109//11 116//11 117//11 110//11
f 116//11 118//11 119//11 117//11
f 118//11 120//11 119//11
f 110//11 121//11 122//11 111//11
f 111//11 122//11 113//11
f 110//11 117//11 123//11 121//11
f 117//11 119//11 123//11
f 121//11 124//11 122//11
f 121//11 123//11 124//11
# Vertices
v 0.000 -1.000 5.000
v 2.000 -1.000 5.000
v 2.000 1.000 5.000
v 0.000 1.000 5.000
v 0.000 -1.000 0.000
v 2.000 -1.000 0.000
v 2.000 1.000 0.000
v 0.000 1.000 0.000
v 4.000 -1.000 5.000
v 4.000 1.000 5.000
v 4.000 -1.000 0.000
v 4.000 1.000 0.000
# Normals
vn 0.000 0.000 1.000

# Faces
usemtl h_bounds_haze
f 125//12 126//12 127//12 128//12
f 129//12 130//12 131//12 132//12
f 126//12 133//12 134//12 127//12
f 130//12 135//12 136//12 131//12
