# GENERATED BY maliput::utility::GenerateObjFile()
#
# DON'T BE A HERO.  Do not edit by hand.

mtllib StackedBranchPointsObjContent.mtl
# Vertices
v 0.000 -1.000 0.000
v 1.000 -1.000 0.000
v 1.000 1.000 0.000
v 0.000 1.000 0.000
v 0.100 1.000 0.000
v -0.900 1.000 0.000
v -0.900 -1.000 0.000
v 0.100 -1.000 0.000
# Normals
vn 0.000 0.000 1.000

# Faces
usemtl bland_asphalt
f 1//1 2//1 3//1 4//1
f 5//1 6//1 7//1 8//1
# Vertices
v 0.000 -0.500 0.020
v 1.000 -0.500 0.020
v 1.000 0.500 0.020
v 0.000 0.500 0.020
v 0.100 0.500 0.020
v -0.900 0.500 0.020
v -0.900 -0.500 0.020
v 0.100 -0.500 0.020
# Normals
vn 0.000 0.000 1.000

# Faces
usemtl lane_haze
f 9//2 10//2 11//2 12//2
f 13//2 14//2 15//2 16//2
# Vertices
v 0.000 0.375 0.050
v 1.000 0.375 0.050
v 1.000 0.625 0.050
v 0.000 0.625 0.050
v 0.000 -0.625 0.050
v 1.000 -0.625 0.050
v 1.000 -0.375 0.050
v 0.000 -0.375 0.050
v 0.010 0.000 0.050
v 0.160 0.000 0.050
v 0.160 0.200 0.050
v 0.010 0.200 0.050
v 0.010 0.400 0.050
v 0.010 -0.200 0.050
v 0.160 -0.200 0.050
v 0.010 -0.400 0.050
v 0.310 0.000 0.050
v 0.690 0.000 0.050
v 0.840 0.000 0.050
v 0.840 0.200 0.050
v 0.690 0.200 0.050
v 0.690 0.400 0.050
v 0.690 -0.200 0.050
v 0.840 -0.200 0.050
v 0.690 -0.400 0.050
v 0.990 0.000 0.050
v 0.100 -0.375 0.050
v -0.900 -0.375 0.050
v -0.900 -0.625 0.050
v 0.100 -0.625 0.050
v 0.100 0.625 0.050
v -0.900 0.625 0.050
v -0.900 0.375 0.050
v 0.100 0.375 0.050
v 0.090 0.000 0.050
v -0.060 0.000 0.050
v -0.060 -0.200 0.050
v 0.090 -0.200 0.050
v 0.090 -0.400 0.050
v 0.090 0.200 0.050
v -0.060 0.200 0.050
v 0.090 0.400 0.050
v -0.210 0.000 0.050
v -0.590 0.000 0.050
v -0.740 0.000 0.050
v -0.740 -0.200 0.050
v -0.590 -0.200 0.050
v -0.590 -0.400 0.050
v -0.590 0.200 0.050
v -0.740 0.200 0.050
v -0.590 0.400 0.050
v -0.890 0.000 0.050
# Normals
vn 0.000 0.000 1.000

# Faces
usemtl marker_paint
f 17//3 18//3 19//3 20//3
f 21//3 22//3 23//3 24//3
f 25//3 26//3 27//3 28//3
f 28//3 27//3 29//3
f 25//3 30//3 31//3 26//3
f 30//3 32//3 31//3
f 26//3 33//3 27//3
f 26//3 31//3 33//3
f 34//3 35//3 36//3 37//3
f 37//3 36//3 38//3
f 34//3 39//3 40//3 35//3
f 39//3 41//3 40//3
f 35//3 42//3 36//3
f 35//3 40//3 42//3
f 43//3 44//3 45//3 46//3
f 47//3 48//3 49//3 50//3
f 51//3 52//3 53//3 54//3
f 54//3 53//3 55//3
f 51//3 56//3 57//3 52//3
f 56//3 58//3 57//3
f 52//3 59//3 53//3
f 52//3 57//3 59//3
f 60//3 61//3 62//3 63//3
f 63//3 62//3 64//3
f 60//3 65//3 66//3 61//3
f 65//3 67//3 66//3
f 61//3 68//3 62//3
f 61//3 66//3 68//3
# Vertices
v 0.000 0.000 0.250
v 0.000 -0.050 0.500
v 0.000 0.000 0.750
v 0.000 0.050 0.500
v 0.400 -0.005 0.500
v 0.400 0.005 0.500
v 0.400 0.000 0.525
v 0.400 0.000 0.475
v 1.000 0.000 0.250
v 1.000 0.050 0.500
v 1.000 0.000 0.750
v 1.000 -0.050 0.500
v 0.600 0.005 0.500
v 0.600 -0.005 0.500
v 0.600 0.000 0.525
v 0.600 0.000 0.475
v 0.100 0.000 0.750
v 0.100 0.050 1.000
v 0.100 0.000 1.250
v 0.100 -0.050 1.000
v -0.300 0.005 1.000
v -0.300 -0.005 1.000
v -0.300 0.000 1.025
v -0.300 0.000 0.975
v -0.900 0.000 0.750
v -0.900 -0.050 1.000
v -0.900 0.000 1.250
v -0.900 0.050 1.000
v -0.500 -0.005 1.000
v -0.500 0.005 1.000
v -0.500 0.000 1.025
v -0.500 0.000 0.975
# Normals
vn 1.000 0.000 0.000
vn 0.000 0.000 1.000
vn 0.000 1.000 0.000
vn -1.000 0.000 0.000
vn 0.000 -1.000 0.000
vn -1.000 0.000 0.000
vn -0.000 -1.000 0.000
vn 1.000 -0.000 0.000
vn 0.000 1.000 0.000

# Faces
usemtl branch_point_glow
f 69//4 70//4 71//4 72//4
f 72//5 70//5 73//5 74//5
f 69//6 71//6 75//6 76//6
f 77//7 78//7 79//7 80//7
f 80//5 78//5 81//5 82//5
f 77//8 79//8 83//8 84//8
f 85//9 86//9 87//9 88//9
f 88//5 86//5 89//5 90//5
f 85//10 87//10 91//10 92//10
f 93//11 94//11 95//11 96//11
f 96//5 94//5 97//5 98//5
f 93//12 95//12 99//12 100//12
# Vertices
v 0.000 -1.000 5.000
v 1.000 -1.000 5.000
v 1.000 1.000 5.000
v 0.000 1.000 5.000
v 0.000 -1.000 0.000
v 1.000 -1.000 0.000
v 1.000 1.000 0.000
v 0.000 1.000 0.000
v 0.100 1.000 5.000
v -0.900 1.000 5.000
v -0.900 -1.000 5.000
v 0.100 -1.000 5.000
v 0.100 1.000 0.000
v -0.900 1.000 0.000
v -0.900 -1.000 0.000
v 0.100 -1.000 0.000
# Normals
vn 0.000 0.000 1.000

# Faces
usemtl h_bounds_haze
f 101//13 102//13 103//13 104//13
f 105//13 106//13 107//13 108//13
f 109//13 110//13 111//13 112//13
f 113//13 114//13 115//13 116//13
